<?xml version="1.0" encoding="UTF-8"?>
<!DOCTYPE svg PUBLIC "-//W3C//DTD SVG 1.1//EN" "http://www.w3.org/Graphics/SVG/1.1/DTD/svg11.dtd">
<svg xmlns="http://www.w3.org/2000/svg" version="1.1" width="512px" height="512px" style="shape-rendering:geometricPrecision; text-rendering:geometricPrecision; image-rendering:optimizeQuality; fill-rule:evenodd; clip-rule:evenodd" xmlns:xlink="http://www.w3.org/1999/xlink">
<g><path style="opacity:0.962" fill="#000000" d="M 328.5,7.5 C 349.177,7.16701 369.844,7.50035 390.5,8.5C 392.01,14.8716 393.676,21.205 395.5,27.5C 404.196,30.6777 412.696,34.3443 421,38.5C 427.323,34.8495 433.657,31.1828 440,27.5C 454.681,42.0139 469.181,56.6806 483.5,71.5C 479.618,77.5462 475.952,83.7129 472.5,90C 476.656,98.304 480.322,106.804 483.5,115.5C 489.795,117.324 496.128,118.99 502.5,120.5C 503.5,248.165 503.833,375.832 503.5,503.5C 346.166,503.667 188.833,503.5 31.5,503C 19,499.833 11.1667,492 8,479.5C 7.33333,400.833 7.33333,322.167 8,243.5C 12.9587,217.083 27.7921,198.583 52.5,188C 29.2138,166.127 25.0471,140.96 40,112.5C 59.4144,87.5192 83.9144,81.0192 113.5,93C 138.114,108.077 147.614,129.911 142,158.5C 139.335,168.004 134.501,176.171 127.5,183C 133.833,183.667 140.167,183.667 146.5,183C 166.706,169.469 186.372,155.136 205.5,140C 208.561,137.965 211.895,136.799 215.5,136.5C 215.5,131.167 215.5,125.833 215.5,120.5C 222.238,119.149 228.904,117.482 235.5,115.5C 238.512,107.303 242.012,99.3028 246,91.5C 246.257,88.9832 245.59,86.6498 244,84.5C 241.042,80.0843 238.208,75.5843 235.5,71C 250,56.5 264.5,42 279,27.5C 285.343,31.1828 291.677,34.8495 298,38.5C 306.304,34.3443 314.804,30.6777 323.5,27.5C 325.483,20.9002 327.15,14.2336 328.5,7.5 Z M 342.5,23.5 C 353.853,23.1678 365.186,23.5012 376.5,24.5C 378.466,30.3639 379.799,36.3639 380.5,42.5C 395.178,45.3428 408.845,50.6761 421.5,58.5C 426.997,55.0847 432.664,52.2513 438.5,50C 446.348,57.681 454.015,65.5143 461.5,73.5C 458.462,78.8566 455.462,84.19 452.5,89.5C 460.324,102.155 465.657,115.822 468.5,130.5C 474.632,131.199 480.632,132.533 486.5,134.5C 487.833,145.833 487.833,157.167 486.5,168.5C 480.632,170.467 474.632,171.801 468.5,172.5C 465.657,187.178 460.324,200.845 452.5,213.5C 455.915,218.997 458.749,224.664 461,230.5C 453.319,238.348 445.486,246.015 437.5,253.5C 432.143,250.462 426.81,247.462 421.5,244.5C 408.845,252.324 395.178,257.657 380.5,260.5C 379.799,266.636 378.466,272.636 376.5,278.5C 365.167,279.833 353.833,279.833 342.5,278.5C 340.534,272.636 339.201,266.636 338.5,260.5C 323.822,257.657 310.155,252.324 297.5,244.5C 292.19,247.462 286.857,250.462 281.5,253.5C 273.514,246.015 265.681,238.348 258,230.5C 260.251,224.664 263.085,218.997 266.5,213.5C 260.446,202.851 255.446,191.684 251.5,180C 260.651,157.968 253.984,142.968 231.5,135C 237.646,132.713 243.979,131.213 250.5,130.5C 253.343,115.822 258.676,102.155 266.5,89.5C 263.085,84.0027 260.251,78.3361 258,72.5C 265.681,64.6521 273.514,56.9854 281.5,49.5C 286.857,52.5382 292.19,55.5382 297.5,58.5C 310.155,50.6761 323.822,45.3428 338.5,42.5C 339.36,36.0608 340.693,29.7275 342.5,23.5 Z M 358.5,71.5 C 393.436,73.3675 418.269,90.0341 433,121.5C 445.46,158.502 436.96,189.669 407.5,215C 375.5,237 343.5,237 311.5,215C 283.57,191.475 274.404,161.975 284,126.5C 297.448,92.6971 322.282,74.3637 358.5,71.5 Z M 79.5,104.5 C 103.48,102.339 118.98,112.673 126,135.5C 128.648,159.501 118.482,175.001 95.5,182C 71.4988,184.648 55.9988,174.482 49,151.5C 46.5588,127.474 56.7255,111.807 79.5,104.5 Z M 352.5,120.5 C 369.58,118.452 381.746,125.119 389,140.5C 393.771,159.119 387.604,172.619 370.5,181C 351.881,185.771 338.381,179.604 330,162.5C 325.236,141.685 332.736,127.685 352.5,120.5 Z M 222.5,151.5 C 236.777,152.93 241.277,160.263 236,173.5C 217.833,187.667 199.667,201.833 181.5,216C 174.852,220.495 167.519,222.828 159.5,223C 138.169,223.5 116.836,223.667 95.5,223.5C 95.5,252.833 95.5,282.167 95.5,311.5C 108.213,311.126 120.88,311.626 133.5,313C 144.204,316.705 150.037,324.205 151,335.5C 151.667,359.5 151.667,383.5 151,407.5C 147.813,421.344 139.646,425.51 126.5,420C 123.894,418.062 122.061,415.562 121,412.5C 119.729,392.876 119.062,373.21 119,353.5C 117.167,349 114,345.833 109.5,344C 88.8333,343.667 68.1667,343.333 47.5,343C 33.6667,341.167 25.8333,333.333 24,319.5C 23.3333,298.167 23.3333,276.833 24,255.5C 27.1667,221.667 45.6667,203.167 79.5,200C 104.167,199.667 128.833,199.333 153.5,199C 156.446,198.194 159.112,196.861 161.5,195C 178.167,182.333 194.833,169.667 211.5,157C 214.99,154.588 218.657,152.755 222.5,151.5 Z M 484.5,186.5 C 485.5,186.5 486.5,186.5 487.5,186.5C 487.5,286.833 487.5,387.167 487.5,487.5C 347.832,487.833 208.165,487.5 68.5,486.5C 69.4318,484.205 70.2652,481.871 71,479.5C 71.1689,472.476 71.6689,465.476 72.5,458.5C 85.7545,449.29 98.9212,439.956 112,430.5C 124.796,440.71 138.629,442.21 153.5,435C 160.334,430.158 164.834,423.658 167,415.5C 167.168,407.479 167.668,399.479 168.5,391.5C 220.579,355.043 272.746,318.71 325,282.5C 326.477,286.409 327.644,290.409 328.5,294.5C 349.167,295.833 369.833,295.833 390.5,294.5C 392.01,288.128 393.676,281.795 395.5,275.5C 403.697,272.488 411.697,268.988 419.5,265C 422.017,264.743 424.35,265.41 426.5,267C 430.916,269.958 435.416,272.792 440,275.5C 454.333,261.167 468.667,246.833 483,232.5C 479.957,225.925 476.457,219.425 472.5,213C 476.622,204.097 480.622,195.264 484.5,186.5 Z M 237.5,193.5 C 240.314,199.969 243.314,206.469 246.5,213C 242.85,219.323 239.183,225.657 235.5,232C 250,246.5 264.5,261 279,275.5C 285.343,271.817 291.677,268.15 298,264.5C 302.592,266.546 307.092,268.713 311.5,271C 263.833,304.167 216.167,337.333 168.5,370.5C 167.667,355.845 167.167,341.178 167,326.5C 163.44,311.939 154.606,302.106 140.5,297C 130.9,295.609 121.233,295.109 111.5,295.5C 111.5,276.833 111.5,258.167 111.5,239.5C 130.836,239.667 150.17,239.5 169.5,239C 178.691,237.237 187.025,233.57 194.5,228C 208.903,216.481 223.236,204.981 237.5,193.5 Z M 23.5,352.5 C 33.1864,358.868 43.853,361.201 55.5,359.5C 55.6667,396.835 55.5,434.168 55,471.5C 53.1534,483.343 46.3201,488.176 34.5,486C 27.9469,483.399 24.4469,478.566 24,471.5C 23.5,431.835 23.3333,392.168 23.5,352.5 Z M 71.5,359.5 C 82.1719,359.333 92.8385,359.5 103.5,360C 102.437,378.447 102.271,396.947 103,415.5C 92.9445,423.222 82.6111,430.555 72,437.5C 71.5,411.502 71.3334,385.502 71.5,359.5 Z"/></g>
<g><path style="opacity:0.929" fill="#000000" d="M 345.5,55.5 C 395,51.8983 429.834,72.5649 450,117.5C 464.531,166.916 450.698,206.083 408.5,235C 386.177,247.387 362.51,250.887 337.5,245.5C 296.495,233.995 271.995,207.328 264,165.5C 259.912,115.975 280.412,81.1421 325.5,61C 332.208,58.8261 338.875,56.9927 345.5,55.5 Z M 358.5,71.5 C 322.282,74.3637 297.448,92.6971 284,126.5C 274.404,161.975 283.57,191.475 311.5,215C 343.5,237 375.5,237 407.5,215C 436.96,189.669 445.46,158.502 433,121.5C 418.269,90.0341 393.436,73.3675 358.5,71.5 Z M 352.5,120.5 C 332.736,127.685 325.236,141.685 330,162.5C 338.381,179.604 351.881,185.771 370.5,181C 387.604,172.619 393.771,159.119 389,140.5C 381.746,125.119 369.58,118.452 352.5,120.5 Z"/></g>
<g><path style="opacity:0.93" fill="#000000" d="M 349.5,103.5 C 379.16,100.564 398.326,113.231 407,141.5C 410.421,171.18 397.921,190.346 369.5,199C 339.82,202.421 320.654,189.921 312,161.5C 308.699,131.735 321.199,112.402 349.5,103.5 Z M 352.5,120.5 C 332.736,127.685 325.236,141.685 330,162.5C 338.381,179.604 351.881,185.771 370.5,181C 387.604,172.619 393.771,159.119 389,140.5C 381.746,125.119 369.58,118.452 352.5,120.5 Z"/></g>
<g><path style="opacity:0.916" fill="#000000" d="M 318.5,304.5 C 320.371,304.859 321.871,305.859 323,307.5C 324.752,310.672 326.752,313.672 329,316.5C 329.749,317.635 329.583,318.635 328.5,319.5C 292.5,344.5 256.5,369.5 220.5,394.5C 217.005,390.165 213.672,385.665 210.5,381C 246.68,355.637 282.68,330.137 318.5,304.5 Z"/></g>
<g><path style="opacity:0.857" fill="#000000" d="M 193.5,391.5 C 194.675,391.281 195.675,391.614 196.5,392.5C 199.298,396.598 201.964,400.765 204.5,405C 200.552,408.646 196.219,411.813 191.5,414.5C 187.813,410.305 184.479,405.805 181.5,401C 185.751,398.055 189.751,394.888 193.5,391.5 Z"/></g>
<g><path style="opacity:1" fill="#000000" d="M 455.5,391.5 C 460.833,391.5 466.167,391.5 471.5,391.5C 471.5,396.833 471.5,402.167 471.5,407.5C 466.167,407.5 460.833,407.5 455.5,407.5C 455.5,402.167 455.5,396.833 455.5,391.5 Z"/></g>
<g><path style="opacity:1" fill="#000000" d="M 455.5,423.5 C 460.833,423.5 466.167,423.5 471.5,423.5C 471.5,428.833 471.5,434.167 471.5,439.5C 466.167,439.5 460.833,439.5 455.5,439.5C 455.5,434.167 455.5,428.833 455.5,423.5 Z"/></g>
<g><path style="opacity:1" fill="#000000" d="M 87.5,455.5 C 92.8333,455.5 98.1667,455.5 103.5,455.5C 103.5,460.833 103.5,466.167 103.5,471.5C 98.1667,471.5 92.8333,471.5 87.5,471.5C 87.5,466.167 87.5,460.833 87.5,455.5 Z"/></g>
<g><path style="opacity:1" fill="#000000" d="M 119.5,455.5 C 124.833,455.5 130.167,455.5 135.5,455.5C 135.5,460.833 135.5,466.167 135.5,471.5C 130.167,471.5 124.833,471.5 119.5,471.5C 119.5,466.167 119.5,460.833 119.5,455.5 Z"/></g>
<g><path style="opacity:1" fill="#000000" d="M 151.5,455.5 C 156.833,455.5 162.167,455.5 167.5,455.5C 167.5,460.833 167.5,466.167 167.5,471.5C 162.167,471.5 156.833,471.5 151.5,471.5C 151.5,466.167 151.5,460.833 151.5,455.5 Z"/></g>
<g><path style="opacity:1" fill="#000000" d="M 455.5,455.5 C 460.833,455.5 466.167,455.5 471.5,455.5C 471.5,460.833 471.5,466.167 471.5,471.5C 466.167,471.5 460.833,471.5 455.5,471.5C 455.5,466.167 455.5,460.833 455.5,455.5 Z"/></g>
</svg>
