<?xml version="1.0" encoding="UTF-8"?>
<!DOCTYPE svg PUBLIC "-//W3C//DTD SVG 1.1//EN" "http://www.w3.org/Graphics/SVG/1.1/DTD/svg11.dtd">
<svg xmlns="http://www.w3.org/2000/svg" version="1.1" width="512px" height="512px" style="shape-rendering:geometricPrecision; text-rendering:geometricPrecision; image-rendering:optimizeQuality; fill-rule:evenodd; clip-rule:evenodd" xmlns:xlink="http://www.w3.org/1999/xlink">
<g><path style="opacity:0.933" fill="#000000" d="M 236.5,-0.5 C 249.167,-0.5 261.833,-0.5 274.5,-0.5C 349.371,9.8693 401.538,49.8693 431,119.5C 454.205,188.609 443.205,251.609 398,308.5C 390.97,315.865 383.636,322.865 376,329.5C 375.667,339.5 375.333,349.5 375,359.5C 370.836,380.495 358.669,394.495 338.5,401.5C 337.504,407.463 337.171,413.463 337.5,419.5C 342.912,419.579 346.245,422.246 347.5,427.5C 346.232,432.77 342.899,435.436 337.5,435.5C 337.943,453.688 329.609,465.354 312.5,470.5C 312.381,491.115 302.714,504.782 283.5,511.5C 264.833,511.5 246.167,511.5 227.5,511.5C 208.204,504.84 198.537,491.174 198.5,470.5C 181.385,465.349 173.051,453.683 173.5,435.5C 165.599,434.151 163.432,429.817 167,422.5C 168.552,421.034 170.386,420.034 172.5,419.5C 173.833,413.5 173.833,407.5 172.5,401.5C 152.331,394.495 140.164,380.495 136,359.5C 135.667,349.5 135.333,339.5 135,329.5C 78.5864,279.259 57.9198,216.925 73,142.5C 82.0205,104.931 100.854,73.4312 129.5,48C 137.619,46.1255 141.452,49.2922 141,57.5C 86.3197,112.22 71.3197,176.22 96,249.5C 107.879,278.051 125.879,302.051 150,321.5C 151.04,334.794 152.04,348.127 153,361.5C 157.666,374.832 166.833,383.332 180.5,387C 202.497,387.5 224.497,387.667 246.5,387.5C 246.5,323.167 246.5,258.833 246.5,194.5C 223.164,194.667 199.831,194.5 176.5,194C 171.465,190.987 170.298,186.82 173,181.5C 173.903,180.299 175.069,179.465 176.5,179C 229.167,178.333 281.833,178.333 334.5,179C 338.861,181.226 340.361,184.726 339,189.5C 338.167,191.667 336.667,193.167 334.5,194C 310.502,194.5 286.502,194.667 262.5,194.5C 262.5,258.833 262.5,323.167 262.5,387.5C 285.169,387.667 307.836,387.5 330.5,387C 345.776,382.724 355.276,372.891 359,357.5C 359.04,345.404 359.707,333.404 361,321.5C 418.169,272.324 437.835,210.991 420,137.5C 400.258,78.0913 360.424,39.258 300.5,21C 254.06,9.13826 210.06,15.1383 168.5,39C 159.21,40.6218 155.71,36.7885 158,27.5C 170.134,19.0167 183.3,12.5167 197.5,8C 210.404,4.07838 223.404,1.24504 236.5,-0.5 Z M 189.5,403.5 C 233.5,403.5 277.5,403.5 321.5,403.5C 321.5,408.833 321.5,414.167 321.5,419.5C 277.5,419.5 233.5,419.5 189.5,419.5C 189.5,414.167 189.5,408.833 189.5,403.5 Z M 189.5,435.5 C 233.5,435.5 277.5,435.5 321.5,435.5C 322.185,444.975 318.185,451.475 309.5,455C 302.833,455.333 296.167,455.667 289.5,456C 284.465,459.013 283.298,463.18 286,468.5C 288.984,471.1 292.484,472.1 296.5,471.5C 296.349,486.15 289.015,494.317 274.5,496C 261.833,496.667 249.167,496.667 236.5,496C 221.985,494.317 214.651,486.15 214.5,471.5C 228.171,471.667 241.837,471.5 255.5,471C 260.299,467.929 261.465,463.762 259,458.5C 258.097,457.299 256.931,456.465 255.5,456C 237.5,455.667 219.5,455.333 201.5,455C 192.823,451.469 188.823,444.969 189.5,435.5 Z"/></g>
<g><path style="opacity:0.909" fill="#000000" d="M 38.5,54.5 C 50.601,60.7188 62.601,67.2188 74.5,74C 78.7793,79.033 78.4459,83.6997 73.5,88C 70.8333,88.6667 68.1667,88.6667 65.5,88C 55.3304,81.7475 44.9971,75.7475 34.5,70C 29.3164,65.3751 29.3164,60.7085 34.5,56C 36.0581,55.79 37.3915,55.29 38.5,54.5 Z"/></g>
<g><path style="opacity:0.909" fill="#000000" d="M 471.5,54.5 C 477.916,55.4146 480.75,59.0813 480,65.5C 479.215,67.286 478.049,68.786 476.5,70C 466.003,75.7475 455.67,81.7475 445.5,88C 441.756,88.9285 438.256,88.4285 435,86.5C 432.697,81.9617 433.197,77.795 436.5,74C 448.261,67.4581 459.927,60.9581 471.5,54.5 Z"/></g>
<g><path style="opacity:0.913" fill="#000000" d="M 10.5,115.5 C 24.7461,117.394 38.7461,120.561 52.5,125C 57.0872,127.763 58.2539,131.597 56,136.5C 54.2568,138.871 51.9234,140.205 49,140.5C 36.1118,137.204 23.2784,133.704 10.5,130C 5.39722,125.214 5.39722,120.381 10.5,115.5 Z"/></g>
<g><path style="opacity:0.912" fill="#000000" d="M 491.5,115.5 C 498.581,113.559 502.914,116.059 504.5,123C 504.097,125.887 502.764,128.221 500.5,130C 487.722,133.704 474.888,137.204 462,140.5C 453.113,138.351 451.28,133.517 456.5,126C 468.228,122.323 479.894,118.823 491.5,115.5 Z"/></g>
<g><path style="opacity:0.92" fill="#000000" d="M -0.5,191.5 C -0.5,188.833 -0.5,186.167 -0.5,183.5C 1.01027,182.164 2.67694,180.997 4.5,180C 18.1667,179.333 31.8333,179.333 45.5,180C 50.48,182.851 51.8133,187.018 49.5,192.5C 48.5,193.333 47.5,194.167 46.5,195C 32.1667,195.667 17.8333,195.667 3.5,195C 1.64977,194.31 0.316435,193.144 -0.5,191.5 Z"/></g>
<g><path style="opacity:0.917" fill="#000000" d="M 511.5,183.5 C 511.5,186.167 511.5,188.833 511.5,191.5C 510.684,193.144 509.35,194.31 507.5,195C 493.167,195.667 478.833,195.667 464.5,195C 461.484,193.471 460.151,190.971 460.5,187.5C 460.336,183.823 462.003,181.323 465.5,180C 479.167,179.333 492.833,179.333 506.5,180C 508.323,180.997 509.99,182.164 511.5,183.5 Z"/></g>
<g><path style="opacity:0.91" fill="#000000" d="M 46.5,234.5 C 52.9254,233.534 56.5921,236.201 57.5,242.5C 57.4441,245.111 56.4441,247.278 54.5,249C 42.5998,252.642 30.5998,255.975 18.5,259C 11.6321,260.914 7.96541,258.414 7.5,251.5C 7.36473,249.192 8.03139,247.192 9.5,245.5C 21.8886,241.658 34.2219,237.991 46.5,234.5 Z"/></g>
<g><path style="opacity:0.911" fill="#000000" d="M 458.5,234.5 C 471.98,236.935 485.313,240.102 498.5,244C 503.226,246.388 504.726,250.222 503,255.5C 501.607,258.366 499.274,259.699 496,259.5C 483.447,256.57 470.947,253.403 458.5,250C 453.432,247.017 452.265,242.851 455,237.5C 456.145,236.364 457.312,235.364 458.5,234.5 Z"/></g>
<g><path style="opacity:0.902" fill="#000000" d="M 67.5,285.5 C 77.0533,286.436 79.72,291.269 75.5,300C 64.5,306.333 53.5,312.667 42.5,319C 35.4781,320.824 31.4781,318.158 30.5,311C 31.1117,308.942 32.1117,307.109 33.5,305.5C 44.8964,298.807 56.2298,292.14 67.5,285.5 Z"/></g>
<g><path style="opacity:0.904" fill="#000000" d="M 439.5,285.5 C 443.105,285.799 446.439,286.965 449.5,289C 458.669,294.752 468.002,300.252 477.5,305.5C 481.409,310.626 480.742,315.126 475.5,319C 473.167,319.667 470.833,319.667 468.5,319C 457.5,312.667 446.5,306.333 435.5,300C 431.943,293.61 433.276,288.776 439.5,285.5 Z"/></g>
</svg>
