<?xml version="1.0" encoding="UTF-8"?>
<!DOCTYPE svg PUBLIC "-//W3C//DTD SVG 1.1//EN" "http://www.w3.org/Graphics/SVG/1.1/DTD/svg11.dtd">
<svg xmlns="http://www.w3.org/2000/svg" version="1.1" width="512px" height="512px" style="shape-rendering:geometricPrecision; text-rendering:geometricPrecision; image-rendering:optimizeQuality; fill-rule:evenodd; clip-rule:evenodd" xmlns:xlink="http://www.w3.org/1999/xlink">
<g><path style="opacity:0.931" fill="#000000" d="M 141.5,7.5 C 145.115,7.20553 148.282,8.20553 151,10.5C 152.41,16.3792 152.91,22.3792 152.5,28.5C 158.262,28.1493 163.928,28.6493 169.5,30C 174.518,33.7217 175.351,38.2217 172,43.5C 171.25,44.1258 170.416,44.6258 169.5,45C 163.843,45.4994 158.176,45.6661 152.5,45.5C 152.666,51.1764 152.499,56.8431 152,62.5C 147.438,68.7191 142.438,69.0525 137,63.5C 135.639,57.5933 135.139,51.5933 135.5,45.5C 129.824,45.6661 124.157,45.4994 118.5,45C 113.167,40 113.167,35 118.5,30C 124.088,28.7111 129.755,28.2111 135.5,28.5C 135.149,22.7383 135.649,17.0716 137,11.5C 138.397,9.92975 139.897,8.59641 141.5,7.5 Z"/></g>
<g><path style="opacity:0.916" fill="#000000" d="M 253.5,7.5 C 257.31,7.37903 260.477,8.71237 263,11.5C 264.289,17.0884 264.789,22.7551 264.5,28.5C 270.245,28.2111 275.912,28.7111 281.5,30C 287.037,35.4796 286.704,40.4796 280.5,45C 275.177,45.4994 269.844,45.666 264.5,45.5C 264.851,51.2617 264.351,56.9284 263,62.5C 259.929,67.2988 255.762,68.4655 250.5,66C 249.299,65.0975 248.465,63.9308 248,62.5C 246.649,56.9284 246.149,51.2617 246.5,45.5C 241.156,45.666 235.823,45.4994 230.5,45C 224.296,40.4796 223.963,35.4796 229.5,30C 235.088,28.7111 240.755,28.2111 246.5,28.5C 246.211,22.7551 246.711,17.0884 248,11.5C 249.5,9.5313 251.333,8.19796 253.5,7.5 Z"/></g>
<g><path style="opacity:0.931" fill="#000000" d="M 372.5,7.5 C 376.077,7.20509 379.243,8.20509 382,10.5C 383.41,16.3792 383.91,22.3792 383.5,28.5C 389.262,28.1493 394.928,28.6493 400.5,30C 405.518,33.7217 406.351,38.2217 403,43.5C 402.25,44.1258 401.416,44.6258 400.5,45C 394.843,45.4994 389.176,45.6661 383.5,45.5C 383.666,51.1764 383.499,56.8431 383,62.5C 378.391,68.7358 373.391,69.0691 368,63.5C 366.639,57.5933 366.139,51.5933 366.5,45.5C 360.824,45.6661 355.157,45.4994 349.5,45C 344.167,40 344.167,35 349.5,30C 355.088,28.7111 360.755,28.2111 366.5,28.5C 366.149,22.7383 366.649,17.0716 368,11.5C 369.397,9.92975 370.897,8.59641 372.5,7.5 Z"/></g>
<g><path style="opacity:0.939" fill="#000000" d="M 511.5,235.5 C 511.5,243.167 511.5,250.833 511.5,258.5C 501.016,300.439 474.016,320.606 430.5,319C 415.537,316.74 402.204,310.907 390.5,301.5C 363.382,335.236 328.382,355.903 285.5,363.5C 285.5,386.833 285.5,410.167 285.5,433.5C 325.282,440.636 358.449,459.302 385,489.5C 387.776,495.134 386.609,499.634 381.5,503C 297.5,503.667 213.5,503.667 129.5,503C 124.391,499.634 123.224,495.134 126,489.5C 152.551,459.302 185.718,440.636 225.5,433.5C 225.5,410.167 225.5,386.833 225.5,363.5C 182.618,355.903 147.618,335.236 120.5,301.5C 90.337,324.101 59.337,325.268 27.5,305C 12.6422,292.778 3.30887,277.278 -0.5,258.5C -0.5,250.833 -0.5,243.167 -0.5,235.5C 5.91109,204.252 24.5778,184.419 55.5,176C 65.154,174.267 74.8206,174.1 84.5,175.5C 84.5,170.833 84.5,166.167 84.5,161.5C 78.1579,161.666 71.8246,161.5 65.5,161C 63.1523,160.654 61.3189,159.487 60,157.5C 58.3889,139.886 58.0555,122.22 59,104.5C 59.6898,101.804 61.1898,99.6374 63.5,98C 191.5,97.3333 319.5,97.3333 447.5,98C 449.81,99.6374 451.31,101.804 452,104.5C 452.944,122.22 452.611,139.886 451,157.5C 449.681,159.487 447.848,160.654 445.5,161C 439.175,161.5 432.842,161.666 426.5,161.5C 426.5,166.167 426.5,170.833 426.5,175.5C 462.892,171.109 489.392,185.109 506,217.5C 508.168,223.531 510.001,229.531 511.5,235.5 Z M 75.5,114.5 C 195.5,114.5 315.5,114.5 435.5,114.5C 435.5,124.5 435.5,134.5 435.5,144.5C 315.5,144.5 195.5,144.5 75.5,144.5C 75.5,134.5 75.5,124.5 75.5,114.5 Z M 101.5,161.5 C 204.167,161.5 306.833,161.5 409.5,161.5C 409.667,175.837 409.5,190.171 409,204.5C 403.185,266.288 372.352,310.454 316.5,337C 262.785,358.032 212.118,352.365 164.5,320C 126.553,290.951 105.72,252.451 102,204.5C 101.5,190.171 101.333,175.837 101.5,161.5 Z M 63.5,191.5 C 70.5293,191.377 77.5293,191.71 84.5,192.5C 84.3599,198.536 84.6932,204.536 85.5,210.5C 59.8981,204.548 42.7314,213.881 34,238.5C 31.6437,266.641 44.477,282.308 72.5,285.5C 84.1652,284.833 93.8319,280.167 101.5,271.5C 104.124,276.585 107.124,281.418 110.5,286C 92.7405,302.574 72.4072,306.574 49.5,298C 23.0583,283.947 12.5583,262.114 18,232.5C 25.511,210.148 40.6776,196.481 63.5,191.5 Z M 431.5,191.5 C 462.153,190.069 482.653,203.735 493,232.5C 498.442,262.114 487.942,283.947 461.5,298C 438.593,306.574 418.259,302.574 400.5,286C 403.876,281.418 406.876,276.585 409.5,271.5C 425.385,287.49 443.052,289.657 462.5,278C 479.205,262.445 482.038,244.611 471,224.5C 458.819,210.274 443.652,205.607 425.5,210.5C 426.307,204.536 426.64,198.536 426.5,192.5C 428.415,192.784 430.081,192.451 431.5,191.5 Z M 254.5,213.5 C 255.497,213.47 256.164,213.97 256.5,215C 259.333,222.833 262.167,230.667 265,238.5C 265.833,239.333 266.667,240.167 267.5,241C 277.735,242.286 288.068,242.952 298.5,243C 292.167,248 285.833,253 279.5,258C 276.96,260.205 274.793,262.705 273,265.5C 274.056,274.321 275.723,282.987 278,291.5C 272.167,287 266.333,282.5 260.5,278C 257.167,276 253.833,276 250.5,278C 244.667,282.5 238.833,287 233,291.5C 235.277,282.987 236.944,274.321 238,265.5C 236.207,262.705 234.04,260.205 231.5,258C 225.167,253 218.833,248 212.5,243C 222.932,242.952 233.265,242.286 243.5,241C 244.333,240.167 245.167,239.333 246,238.5C 249.141,230.243 251.974,221.91 254.5,213.5 Z M 67.5,225.5 C 85.7299,225.902 93.8965,235.235 92,253.5C 85.1763,267.441 74.6763,271.274 60.5,265C 50.3023,257.625 47.8023,248.125 53,236.5C 56.5145,231.003 61.3478,227.337 67.5,225.5 Z M 435.5,225.5 C 455.095,226.375 462.929,236.375 459,255.5C 450.832,268.584 439.999,271.417 426.5,264C 421.868,260.235 419.202,255.402 418.5,249.5C 419.506,244.474 420.673,239.474 422,234.5C 425.86,230.335 430.36,227.335 435.5,225.5 Z M 242.5,366.5 C 251.167,366.5 259.833,366.5 268.5,366.5C 268.333,392.502 268.5,418.502 269,444.5C 270.543,446.378 272.376,447.878 274.5,449C 305.617,453.23 332.95,465.563 356.5,486C 289.167,486.667 221.833,486.667 154.5,486C 178.05,465.563 205.383,453.23 236.5,449C 238.624,447.878 240.457,446.378 242,444.5C 242.5,418.502 242.667,392.502 242.5,366.5 Z"/></g>
<g><path style="opacity:0.936" fill="#000000" d="M 252.5,178.5 C 256.803,177.796 260.303,179.13 263,182.5C 268.068,196.538 273.235,210.538 278.5,224.5C 294.49,225.333 310.49,225.833 326.5,226C 333.143,229.881 334.143,234.881 329.5,241C 317,250.833 304.5,260.667 292,270.5C 291.333,272.167 291.333,273.833 292,275.5C 295.736,288.612 299.236,301.779 302.5,315C 300.91,323.129 296.244,325.462 288.5,322C 277.861,313.016 266.861,304.516 255.5,296.5C 244.139,304.516 233.139,313.016 222.5,322C 212.426,325.553 207.926,322.053 209,311.5C 213.139,297.947 216.472,284.28 219,270.5C 206.5,260.667 194,250.833 181.5,241C 176.857,234.881 177.857,229.881 184.5,226C 200.51,225.833 216.51,225.333 232.5,224.5C 237.765,210.538 242.932,196.538 248,182.5C 249.397,180.93 250.897,179.596 252.5,178.5 Z M 254.5,213.5 C 251.974,221.91 249.141,230.243 246,238.5C 245.167,239.333 244.333,240.167 243.5,241C 233.265,242.286 222.932,242.952 212.5,243C 218.833,248 225.167,253 231.5,258C 234.04,260.205 236.207,262.705 238,265.5C 236.944,274.321 235.277,282.987 233,291.5C 238.833,287 244.667,282.5 250.5,278C 253.833,276 257.167,276 260.5,278C 266.333,282.5 272.167,287 278,291.5C 275.723,282.987 274.056,274.321 273,265.5C 274.793,262.705 276.96,260.205 279.5,258C 285.833,253 292.167,248 298.5,243C 288.068,242.952 277.735,242.286 267.5,241C 266.667,240.167 265.833,239.333 265,238.5C 262.167,230.667 259.333,222.833 256.5,215C 256.164,213.97 255.497,213.47 254.5,213.5 Z"/></g>
<g><path style="opacity:0.923" fill="#000000" d="M 382.5,187.5 C 391.226,186.393 395.226,190.226 394.5,199C 393.858,217.21 390.025,234.71 383,251.5C 378.62,256.343 373.954,256.677 369,252.5C 368.015,250.634 367.515,248.634 367.5,246.5C 370.294,237.612 372.794,228.612 375,219.5C 376.329,210.539 377.329,201.539 378,192.5C 379.025,190.313 380.525,188.646 382.5,187.5 Z"/></g>
<g><path style="opacity:0.913" fill="#000000" d="M 354.5,268.5 C 366.828,269.823 369.328,275.489 362,285.5C 352.709,296.129 342.209,305.296 330.5,313C 322.502,317.329 317.502,315.163 315.5,306.5C 315.577,304.701 316.077,303.034 317,301.5C 331.061,292.228 343.561,281.228 354.5,268.5 Z"/></g>
</svg>
