<?xml version="1.0" encoding="UTF-8"?>
<!DOCTYPE svg PUBLIC "-//W3C//DTD SVG 1.1//EN" "http://www.w3.org/Graphics/SVG/1.1/DTD/svg11.dtd">
<svg xmlns="http://www.w3.org/2000/svg" version="1.1" width="512px" height="512px" style="shape-rendering:geometricPrecision; text-rendering:geometricPrecision; image-rendering:optimizeQuality; fill-rule:evenodd; clip-rule:evenodd" xmlns:xlink="http://www.w3.org/1999/xlink">
<g><path style="opacity:0.963" fill="#000000" d="M 240.5,-0.5 C 250.5,-0.5 260.5,-0.5 270.5,-0.5C 331.393,11.2298 366.226,47.8964 375,109.5C 377.096,138.288 369.93,164.455 353.5,188C 396.5,188.333 439.5,188.667 482.5,189C 497.349,193.35 507.015,202.85 511.5,217.5C 511.5,287.5 511.5,357.5 511.5,427.5C 507.071,443.914 496.404,453.747 479.5,457C 422.5,457.333 365.5,457.667 308.5,458C 292.634,476.028 276.634,493.861 260.5,511.5C 257.167,511.5 253.833,511.5 250.5,511.5C 234.394,493.887 218.394,476.054 202.5,458C 145.5,457.667 88.5,457.333 31.5,457C 14.596,453.747 3.92934,443.914 -0.5,427.5C -0.5,357.5 -0.5,287.5 -0.5,217.5C 3.98451,202.85 13.6512,193.35 28.5,189C 71.5,188.667 114.5,188.333 157.5,188C 132.939,150.605 129.105,111.105 146,69.5C 165.467,29.8592 196.967,6.52583 240.5,-0.5 Z M 254.5,19.5 C 305.267,22.7755 337.767,48.7755 352,97.5C 359.612,151.787 338.445,189.954 288.5,212C 238.502,225.739 199.002,211.239 170,168.5C 148.78,126.595 153.114,87.5954 183,51.5C 202.674,31.4108 226.507,20.7441 254.5,19.5 Z M 36.5,208.5 C 83.1679,208.333 129.835,208.5 176.5,209C 212.957,238.745 253.624,246.078 298.5,231C 311.802,225.688 323.802,218.354 334.5,209C 381.167,208.333 427.833,208.333 474.5,209C 484.46,210.627 489.96,216.46 491,226.5C 491.979,292.531 491.646,358.531 490,424.5C 487.414,430.088 483.247,433.921 477.5,436C 418.5,436.333 359.5,436.667 300.5,437C 296.701,439.797 293.201,442.964 290,446.5C 278.724,459.397 267.224,472.064 255.5,484.5C 243.776,472.064 232.276,459.397 221,446.5C 217.799,442.964 214.299,439.797 210.5,437C 150.442,436.989 90.4423,436.322 30.5,435C 23.839,431.511 20.339,426.011 20,418.5C 19.3333,354.5 19.3333,290.5 20,226.5C 21.2234,216.448 26.7234,210.448 36.5,208.5 Z M 105.5,286.5 C 135.822,285.655 150.655,300.322 150,330.5C 149.443,334.175 148.11,337.508 146,340.5C 142.749,336.578 138.916,333.412 134.5,331C 124,329.5 119.5,334 121,344.5C 123.596,348.931 126.762,352.931 130.5,356.5C 112.233,365.146 96.3998,361.813 83,346.5C 71.6109,327.88 73.4442,310.713 88.5,295C 93.7119,291.061 99.3785,288.227 105.5,286.5 Z"/></g>
<g><path style="opacity:0.938" fill="#000000" d="M 252.5,41.5 C 278.761,42.7615 293.427,56.4282 296.5,82.5C 295.164,102.658 284.997,115.991 266,122.5C 265.667,131.5 265.333,140.5 265,149.5C 260.66,155.864 255.16,157.031 248.5,153C 246.396,150.958 245.229,148.458 245,145.5C 244.333,134.5 244.333,123.5 245,112.5C 245.319,109.027 246.819,106.194 249.5,104C 264.147,103.839 272.813,96.6728 275.5,82.5C 273.848,70.8475 267.181,64.1809 255.5,62.5C 241.302,65.2091 234.135,73.8758 234,88.5C 228.042,95.1531 222.042,95.1531 216,88.5C 214.05,61.9431 226.216,46.2765 252.5,41.5 Z"/></g>
<g><path style="opacity:0.899" fill="#000000" d="M 253.5,174.5 C 263.539,174.709 267.373,179.709 265,189.5C 262.081,195.025 257.581,196.858 251.5,195C 245.57,191.634 243.737,186.8 246,180.5C 247.707,177.41 250.207,175.41 253.5,174.5 Z"/></g>
<g><path style="opacity:0.943" fill="#000000" d="M 102.5,265.5 C 139.127,262.873 161.961,279.206 171,314.5C 173.154,329.4 170.32,343.233 162.5,356C 165.32,359.489 168.153,362.989 171,366.5C 173.5,378.667 168.667,383.5 156.5,381C 153.02,378.354 149.686,375.521 146.5,372.5C 116.272,389.101 89.4384,384.767 66,359.5C 51.0529,336.39 50.7196,313.057 65,289.5C 74.5428,276.816 87.0428,268.816 102.5,265.5 Z M 105.5,286.5 C 99.3785,288.227 93.7119,291.061 88.5,295C 73.4442,310.713 71.6109,327.88 83,346.5C 96.3998,361.813 112.233,365.146 130.5,356.5C 126.762,352.931 123.596,348.931 121,344.5C 119.5,334 124,329.5 134.5,331C 138.916,333.412 142.749,336.578 146,340.5C 148.11,337.508 149.443,334.175 150,330.5C 150.655,300.322 135.822,285.655 105.5,286.5 Z"/></g>
<g><path style="opacity:0.945" fill="#000000" d="M 199.5,265.5 C 206.445,263.775 211.278,266.108 214,272.5C 214.027,298.229 214.694,323.896 216,349.5C 224.798,361.491 235.965,364.325 249.5,358C 253.333,355.5 256.5,352.333 259,348.5C 260.297,322.882 260.963,297.216 261,271.5C 264.277,265.891 269.11,264.058 275.5,266C 278.381,267.251 280.214,269.417 281,272.5C 281.667,297.167 281.667,321.833 281,346.5C 279.463,359.091 273.296,368.591 262.5,375C 237.857,388.044 216.691,383.878 199,362.5C 196.781,358.729 195.115,354.729 194,350.5C 193.333,324.167 193.333,297.833 194,271.5C 195.36,268.977 197.193,266.977 199.5,265.5 Z"/></g>
<g><path style="opacity:0.945" fill="#000000" d="M 321.5,265.5 C 327.898,264.053 332.731,266.053 336,271.5C 336.667,306.5 336.667,341.5 336,376.5C 332.179,382.393 327.012,383.893 320.5,381C 318.106,379.048 316.606,376.548 316,373.5C 315.333,340.5 315.333,307.5 316,274.5C 316.825,270.844 318.658,267.844 321.5,265.5 Z"/></g>
<g><path style="opacity:0.945" fill="#000000" d="M 379.5,265.5 C 402.836,265.333 426.169,265.5 449.5,266C 455.626,270.391 456.792,275.891 453,282.5C 435.958,308.752 418.791,334.919 401.5,361C 417.5,361.333 433.5,361.667 449.5,362C 457.098,366.468 458.431,372.468 453.5,380C 452.167,380.667 450.833,381.333 449.5,382C 425.833,382.667 402.167,382.667 378.5,382C 373.964,380.276 371.631,376.943 371.5,372C 371.952,368.591 373.119,365.424 375,362.5C 391.624,337.419 408.124,312.252 424.5,287C 409.113,286.936 393.78,286.269 378.5,285C 371.606,278.024 371.939,271.524 379.5,265.5 Z"/></g>
</svg>
