<?xml version="1.0" encoding="UTF-8"?>
<!DOCTYPE svg PUBLIC "-//W3C//DTD SVG 1.1//EN" "http://www.w3.org/Graphics/SVG/1.1/DTD/svg11.dtd">
<svg xmlns="http://www.w3.org/2000/svg" version="1.1" width="512px" height="512px" style="shape-rendering:geometricPrecision; text-rendering:geometricPrecision; image-rendering:optimizeQuality; fill-rule:evenodd; clip-rule:evenodd" xmlns:xlink="http://www.w3.org/1999/xlink">
<g><path style="opacity:0.963" fill="#000000" d="M 511.5,117.5 C 511.5,122.5 511.5,127.5 511.5,132.5C 499.499,188.997 487.666,245.664 476,302.5C 473.067,312.434 466.567,318.6 456.5,321C 351.501,321.5 246.501,321.667 141.5,321.5C 143.285,333.134 145.618,344.634 148.5,356C 250.167,356.333 351.833,356.667 453.5,357C 460.759,360.693 463.259,366.526 461,374.5C 459.084,378.085 456.251,380.585 452.5,382C 349.167,382.667 245.833,382.667 142.5,382C 132.844,379.677 126.344,373.843 123,364.5C 102.794,265.806 82.4612,167.139 62,68.5C 61.5,67.3333 60.6667,66.5 59.5,66C 41.0497,58.275 22.7164,50.275 4.5,42C 2.59809,40.2703 0.93142,38.437 -0.5,36.5C -0.5,32.8333 -0.5,29.1667 -0.5,25.5C 3.5747,19.472 9.24137,17.3053 16.5,19C 36.6649,27.2775 56.6649,35.9442 76.5,45C 80.3916,48.2258 83.5583,52.0591 86,56.5C 89.2998,70.669 92.4664,84.8357 95.5,99C 227.5,99.3333 359.5,99.6667 491.5,100C 501.176,102.515 507.842,108.349 511.5,117.5 Z M 100.5,125.5 C 228.833,125.5 357.167,125.5 485.5,125.5C 474.218,181.912 462.551,238.246 450.5,294.5C 345.502,295.5 240.502,295.833 135.5,295.5C 124.088,238.774 112.422,182.107 100.5,125.5 Z"/></g>
<g><path style="opacity:0.961" fill="#000000" d="M 200.5,164.5 C 262.168,164.333 323.834,164.5 385.5,165C 395.918,168.572 398.751,175.405 394,185.5C 392.457,187.378 390.624,188.878 388.5,190C 325.167,190.667 261.833,190.667 198.5,190C 192.623,188.125 189.956,184.125 190.5,178C 190.606,171.066 193.94,166.566 200.5,164.5 Z"/></g>
<g><path style="opacity:0.961" fill="#000000" d="M 207.5,230.5 C 264.501,230.333 321.501,230.5 378.5,231C 387.207,236.602 388.707,243.769 383,252.5C 380.932,254.562 378.432,255.728 375.5,256C 320.833,256.667 266.167,256.667 211.5,256C 200.638,252.751 197.471,245.918 202,235.5C 203.73,233.598 205.563,231.931 207.5,230.5 Z"/></g>
<g><path style="opacity:0.955" fill="#000000" d="M 210.5,401.5 C 244.445,403.609 260.612,421.609 259,455.5C 251.723,482.903 233.89,495.07 205.5,492C 177.645,483.797 165.812,465.297 170,436.5C 176.286,416.374 189.786,404.708 210.5,401.5 Z M 213.5,427.5 C 231.136,431.44 236.636,441.773 230,458.5C 221.497,467.734 211.997,468.9 201.5,462C 191.377,449.938 192.711,439.272 205.5,430C 208.31,429.218 210.977,428.384 213.5,427.5 Z"/></g>
<g><path style="opacity:0.954" fill="#000000" d="M 368.5,401.5 C 402.41,403.576 418.577,421.576 417,455.5C 409.375,482.41 391.541,494.577 363.5,492C 335.64,483.785 323.807,465.285 328,436.5C 334.267,416.396 347.767,404.73 368.5,401.5 Z M 371.5,427.5 C 389.122,431.413 394.622,441.746 388,458.5C 380.074,467.311 370.908,468.811 360.5,463C 349.238,450.901 350.238,439.901 363.5,430C 366.31,429.218 368.977,428.384 371.5,427.5 Z"/></g>
</svg>
